<?xml version="1.0" encoding="utf-8"?>
<!-- Generator: Adobe Illustrator 27.5.0, SVG Export Plug-In . SVG Version: 6.00 Build 0)  -->
<svg version="1.1" xmlns="http://www.w3.org/2000/svg" xmlns:xlink="http://www.w3.org/1999/xlink" x="0px" y="0px"
	 viewBox="0 0 1000 800" style="enable-background:new 0 0 1000 800;" xml:space="preserve">
<g id="background">
	<rect style="fill:#FFFFFF;" width="1000" height="800"/>
</g>
<g id="shadow">
	<g style="opacity:0.7;">
		<path style="fill:#D8D8D8;" d="M480.1,707.229c-25.025,0.052-50.05,0.47-75.03,2.403c-9.419,0.729-18.64,2.332-28.081,2.978
			c-18.857,1.291-37.376,3.7-56.299,4.811c-15.239,0.895-30.542,1.423-45.736,2.558c-14.246,1.064-30.017,0.819-44.153-0.94
			c-10.465-1.302-20.978-2.035-31.268-4.126c-11.51-2.339-24.015-4.012-36.007-3.951c-17.101,0.086-33.755,0.096-50.121,4.226
			c-5.745,1.45-12.778,3.833-17.14,6.876c-9.987,6.965-11.339,24.345-1.367,31.57c16.795,12.159,52.641,16.929,76.184,17.154
			c25.797,0.247,50.858-1.085,76.693-1.868c24.006-0.728,47.953-1.763,71.999-1.727c49.112,0.074,98.23,0,147.253-2.282
			c46.058-2.144,92.232-1.408,138.391-1.408c47.334,0,94.349,0.259,141.341,4.634c20.476,1.906,41.335,2.574,61.913,3.91
			c18.43,1.196,36.14-0.024,54.496-1.129c15.414-0.928,30.726-3.682,44.729-8.336c11.084-3.685,30.845-15.131,34.244-23.925
			c9.529-24.656-134.3-24.063-156.384-24.008c-24.704,0.062-49.605,0.627-74.29-0.028c-10.384-0.276-20.615-1.687-30.749-3.234
			c-10.094-1.541-20.265-1.149-30.501-1.796c-42.688-2.7-85.471-2.306-128.296-2.306C507.985,707.285,494.043,707.2,480.1,707.229z"
			/>
	</g>
</g>
<g id="object">
	<g>
		<g>
			<polygon style="fill:#E5BBAE;" points="763.593,730.726 752.009,730.726 751.532,633.408 773.102,638.047 			"/>
		</g>
		<g>
			<g>
				<polygon style="fill:#122235;" points="674.852,731.836 675.769,738.971 662.417,747.94 654.365,741.723 660.582,733.671 
					673.934,724.701 				"/>
			</g>
			<g>
				<g>
					<polygon style="fill:#1A3151;" points="675.303,729.441 665.006,638.449 677.395,536.584 674.609,514.915 619.272,512.813 
						617.275,548.081 626.565,638.589 661.514,734.091 					"/>
				</g>
			</g>
			<g>
				<g>
					<polygon style="fill:#1A3151;" points="579.799,544.203 577.645,615.063 592.714,733.752 606.016,734.003 616.475,624.946 
						632.013,541.442 					"/>
				</g>
				<g>
					<polygon style="fill:#122235;" points="605.834,739.61 591.314,746.531 584.257,739.204 591.585,732.147 605.969,732.418 					
						"/>
				</g>
			</g>
			<g>
				<g>
					<path style="fill:#145566;" d="M680.79,554.284c-0.563-6.187,0.585-18.032,0.223-21.093
						c-2.464-20.839-1.586-41.017-5.177-61.874c-1.342-7.793-6.018-27.246-9.397-34.474c-8.402-17.976-5.807-19.637-42.712-24.974
						c-10.26-1.484-18.47,3.452-24.865,11.23c-8.2,9.974-6.675,26.132-11.046,37.926c-5.003,13.5-3.129,28.217-5.159,42.392
						c-2.455,17.139-5.635,34.913-7.207,51.712c-0.05,0.536-0.071,1.156,0.326,1.52c0.325,0.298,0.813,0.308,1.254,0.298
						c12.669-0.285,25.264-1.684,37.992-1.589c9.861,0.073,19.504,2.335,29.317,2.961c12.003,0.766,26.438-7.604,37.571-0.338
						C681.306,557.586,680.965,556.209,680.79,554.284z"/>
				</g>
			</g>
			<g>
				<g>
					<path style="fill:#E5BBAE;" d="M623.68,416.937c1.862,0.92,6.258,1.25,10.843-0.546c0.924-0.362,1.548-1.253,1.535-2.245
						c-0.036-2.785-0.26-5.568-0.67-8.323c3.439-1.209,7.413-3.023,8.012-6.619c0.189-1.133-0.007-2.29-0.203-3.421
						c-0.808-4.678-1.617-9.355-2.425-14.033c-0.279-1.618-0.577-3.283-1.457-4.669c-1.544-2.432-4.54-3.496-7.378-3.989
						c-7.243-1.257-15.136,0.312-20.752,5.056c-1.495,1.263-2.846,2.78-3.505,4.623c-1.016,2.84-0.256,5.973,0.51,8.891
						c0.707,2.693,1.414,5.387,2.121,8.08c0.813,3.098,1.988,6.619,4.972,7.781c1.585,0.617,3.456,0.437,4.89,1.349
						C622.704,410.48,622.363,414.242,623.68,416.937z"/>
				</g>
				<g>
					<path style="fill:#101E30;" d="M581.875,370.289c-0.711-1.168-1.478-2.295-2.335-3.353c-1.857-2.29-4.146-4.253-5.641-6.794
						c-1.495-2.542-2.02-5.987-0.227-8.328c1.157-1.51,3.035-2.266,4.861-2.803c6.015-1.77,12.506-1.89,18.583-0.343
						c5.787,1.473,10.967,3.913,16.793,1.737c5.474-2.044,9.428-1.211,15.149,0.83c6.191,2.209,14.502,2.73,20.106,5.849
						c2.34,1.302,4.208,3.337,5.663,5.585c5.043,7.788,5.071,18.527,0.068,26.342c-1.122,1.753-2.465,3.356-3.876,4.886
						c-2.921,3.168-6.414,7.08-10.432,8.254c-0.096-3.594,3.178-14.928,0.418-17.874c-4.381-4.675-14.285-3.044-19.719-1.893
						c-5.927,1.256-11.211,5.453-17.088,6.35c-4.229,0.645-9.626-1.428-13.222-3.614
						C586.537,382.421,584.471,374.552,581.875,370.289z"/>
				</g>
			</g>
		</g>
		<g>
			<g>
				<polygon style="fill:#E5BBAE;" points="691.372,364.784 685.567,349.642 690.943,342.94 696.629,347.806 698.993,353.971 
					703.155,354.072 702.953,365.337 726.796,413.737 768.032,413.33 758.901,446.1 718.264,431.969 705.858,420.049 				"/>
			</g>
			<g>
				<g>
					<g>
						<polygon style="fill:#E5BBAE;" points="838.807,355.504 838.444,344.161 847.317,334.996 854.614,336.757 848.343,363.6 
													"/>
					</g>
				</g>
				<g>
					<g>
						<polygon style="fill:#E5BBAE;" points="793.149,409.206 826.162,421.264 838.807,355.504 847.64,357.388 850.364,432.457 
							839.976,448.559 807.086,439.12 						"/>
					</g>
				</g>
			</g>
			<g>
				<g>
					<polygon style="fill:#145566;" points="777.111,571.779 829.121,554.326 815.93,644.184 788.639,653.595 778.754,579.429 
						778.754,579.429 					"/>
				</g>
				<g>
					<polygon style="fill:#122235;" points="810.131,727.088 820.668,727.123 823.102,736.084 822.835,736.156 822.902,736.165 
						805.198,745.982 796.895,746.665 796.114,737.175 798.397,735.601 					"/>
				</g>
			</g>
			<g>
				<g>
					<polygon style="fill:#145566;" points="741.061,572.323 750.945,640.798 774.883,644.832 795.002,562.325 					"/>
				</g>
				<g>
					<polygon style="fill:#122235;" points="752.009,730.726 738.296,737.99 739.378,744.393 763.593,744.212 763.593,730.726 					
						"/>
				</g>
			</g>
			<g>
				<g>
					<path style="fill:#B5D6CA;" d="M738.296,575.892c2.527,0.651,5.54-0.268,8.178-0.301c12.124-0.154,23.853,0.085,35.982-1.088
						c12.958-1.253,25.91-2.848,38.945-2.95c5.419-0.55,10.841-0.842,16.24-0.698c-5.766-30.573-12.493-59.455-12.49-59.457
						c-2.281-8.699-4.02-17.548-5.062-26.419c-0.742-6.316-16.438-78.093-15.397-78.185c-10.812,0.952-31.66-2.13-39.669,7.128
						c-0.229,0.265-0.447,0.539-0.655,0.824c-6.244,8.585-9.487,25.965-12.439,36.665c-4.306,15.608-3.845,31.943-4.402,47.976
						c-0.788,22.699-7.868,44.09-8.519,66.752C738.914,569.405,738.486,572.648,738.296,575.892z"/>
				</g>
			</g>
			<g>
				<g>
					<path style="fill:#101E30;" d="M784.867,371.005c-5.926,0.682-13.473,5.212-15.289,11.297c-0.875,2.93-0.085,5.733-1.146,8.833
						c-2.068,6.118,4.865,15.785-2.877,19.624c-3.979,1.973-8.722,0.939-13.032-0.136c-0.523-0.13-1.069-0.273-1.465-0.638
						c-0.653-0.6-0.7-1.646-0.383-2.475c0.317-0.828,0.923-1.505,1.461-2.21c5.63-7.37,5.113-18.505,7.68-27.15
						c2.563-8.629,7.841-17.044,16.753-20.07c4.142,3.086,6.903,6.293,7.651,11.404L784.867,371.005z"/>
				</g>
				<g>
					<path style="fill:#E5BBAE;" d="M777.04,407.291c-5.476-2.779-8.833-8.759-9.666-14.843c-0.833-6.084,0.549-12.27,2.594-18.06
						c6.807-19.267,31.073-12.03,35.718,5.132C809.733,394.477,792.962,415.371,777.04,407.291z"/>
				</g>
				<g>
					<path style="fill:#101E30;" d="M803.022,420.91c-2.653-1.901-5.246-3.878-6.638-7.194c-2.25-5.359-0.629-13.352-0.569-19.003
						c0.065-5.956-0.051-12.458-3.836-17.057c-2.472-3.003-5.69-3.994-9.357-4.613c-2.511-0.423-2.753,0.514-4.676-1.16
						c-1.474-1.283-2.398-4.587-2.501-6.453c-0.173-3.146,1.541-6.177,3.917-8.247c3.656-3.186,7.607-4.443,12.296-3.837
						c16.459,2.127,27.296,13.721,29.489,30.449c1.054,8.04-1.893,16.367-0.647,24.141c0.77,4.799,3.24,8.293,3.689,13.348
						c1.165,13.115,5.698,30.349,3.182,43.346c-0.093,0.481-0.232,1.009-0.643,1.275c-0.838,0.542-1.822-0.423-2.352-1.268
						c-3.093-4.935-6.187-9.87-9.28-14.805c-1.215-1.938-2.444-3.908-3.078-6.106c-1.577-5.472,0.643-11.903-2.38-16.728
						C807.987,424.366,805.479,422.671,803.022,420.91z"/>
				</g>
			</g>
		</g>
		<g>
			<g>
				<g>
					<g>
						<polygon style="fill:#E5BBAE;" points="238.642,322.67 238.279,311.327 247.152,302.161 252.891,305.48 247.825,327.169 
													"/>
					</g>
				</g>
				<g>
					<g>
						<polygon style="fill:#E5BBAE;" points="205.235,427.621 225.997,388.429 238.642,322.67 247.475,324.553 247.83,394.962 
							239.811,415.725 219.172,457.535 						"/>
					</g>
				</g>
			</g>
			<g>
				<g>
					<g>
						<g>
							<g>
								<polygon style="fill:#122235;" points="161.192,730.085 160.494,735.666 170.477,742.882 176.516,738.118 171.874,731.72 
									161.891,724.504 								"/>
							</g>
						</g>
					</g>
					<g>
						<g>
							<g>
								<polygon style="fill:#9EA6AD;" points="165.486,559.041 163.366,575.991 177.205,634.727 160.858,728.201 171.175,732.036 
									200.766,641.1 205.748,614.56 206.922,558.153 								"/>
							</g>
						</g>
					</g>
				</g>
				<g>
					<g>
						<g>
							<g>
								<polygon style="fill:#9EA6AD;" points="245.039,579.867 219.448,736.539 209.503,736.304 210.093,635.504 193.663,564.356 
																	"/>
							</g>
						</g>
					</g>
					<g>
						<g>
							<g>
								<polygon style="fill:#122235;" points="209.589,735.062 209.456,740.708 220.077,746.609 225.587,741.089 220.344,735.316 
																	"/>
							</g>
						</g>
					</g>
				</g>
				<g>
					<g>
						<g>
							<g>
								<path style="fill:#1A3151;" d="M169.59,514.312c0.774-3.135,1.313-5.352,1.505-6.153
									c3.478-14.481,2.353-31.415,3.219-46.417c0.676-11.708,0.116-23.491,0.908-35.176c0.614-9.058,7.833-13.595,7.833-13.595
									c3.137-0.55,5.895-2.284,9.061-2.919c21.422-4.297,32.7,10.545,40.306,26.445c6.061,12.671,10.935,24.047,11.358,37.976
									c0.691,22.738-1.732,45.459,2.869,67.734c2.666,12.909,3.648,26.165,2.914,39.326c-8.8-2.738-17.023-6.325-25.568-9.393
									c-10.14-3.641-22.309-2.838-32.94-3.011c-12.294-0.2-24.312,0.831-36.572-1.202
									C156.097,568.194,165.742,529.902,169.59,514.312z"/>
							</g>
						</g>
					</g>
				</g>
			</g>
			<g>
				<g>
					<polygon style="fill:#ECECEC;" points="211.35,410.745 213.997,470.388 184.806,413.062 193.785,410.092 200.19,408.335 					
						"/>
				</g>
			</g>
		</g>
		<g>
			<g>
				<g>
					<g>
						<g>
							
								<rect x="228.001" y="426.359" transform="matrix(0.9781 0.2081 -0.2081 0.9781 113.837 -50.241)" style="fill:#145566;" width="135.398" height="179.112"/>
						</g>
						<g>
							
								<rect x="235.037" y="432.085" transform="matrix(0.9781 0.2081 -0.2081 0.9781 113.6392 -50.3055)" style="fill:#FFFFFF;" width="121.741" height="165.713"/>
						</g>
						<g>
							<g style="opacity:0.12;">
								
									<rect x="286.376" y="432.987" transform="matrix(0.9781 0.2081 -0.2081 0.9781 97.4669 -55.5641)" width="52.873" height="4.92"/>
							</g>
							<g>
								<g>
									<path style="fill:#B5D6CA;" d="M331.677,421.73l-0.802-0.171l0.114-0.536c1.074-5.053-2.8-10.158-8.654-11.404
										l-7.711-1.641c-5.854-1.245-11.471,1.841-12.546,6.893l-0.114,0.536l-0.802-0.171c-5.854-1.245-11.471,1.841-12.545,6.893
										l-2.173,10.221l51.715,11.003l2.174-10.221C341.406,428.081,337.531,422.976,331.677,421.73z M323.187,420.144
										l-13.625-2.899c-1.393-0.296-2.292-1.668-1.998-3.049c0.294-1.38,1.673-2.268,3.066-1.971l13.625,2.899
										c1.393,0.296,2.292,1.668,1.998,3.049C325.96,419.553,324.58,420.44,323.187,420.144z"/>
								</g>
							</g>
						</g>
					</g>
					<g style="opacity:0.47;">
						<g>
							<path style="fill:#879195;" d="M277.239,473.616c-5.828-1.24-11.655-2.48-17.483-3.72c-0.492-0.105-0.999,0.22-1.103,0.709
								c-1.229,5.777-2.457,11.554-3.686,17.331c-0.104,0.488,0.225,0.991,0.719,1.096c5.827,1.24,11.655,2.48,17.483,3.72
								c0.267,0.057,0.491,0.004,0.667-0.11c0.013-0.007,0.025-0.015,0.037-0.022c0.007-0.005,0.014-0.009,0.021-0.014
								c0.179-0.113,0.321-0.295,0.378-0.562c1.229-5.777,2.457-11.554,3.686-17.331
								C278.061,474.224,277.732,473.72,277.239,473.616z M272.643,490.753c-5.221-1.111-10.441-2.221-15.662-3.332
								c1.101-5.175,2.201-10.35,3.302-15.526c5.22,1.111,10.441,2.221,15.661,3.332
								C274.844,480.402,273.743,485.577,272.643,490.753z"/>
						</g>
						<g>
							<path style="fill:#879195;" d="M270.424,505.659c-5.828-1.24-11.655-2.48-17.483-3.72c-0.492-0.105-0.998,0.22-1.102,0.709
								c-1.229,5.777-2.457,11.554-3.686,17.331c-0.104,0.488,0.225,0.991,0.719,1.096c5.828,1.24,11.655,2.48,17.483,3.719
								c0.267,0.057,0.491,0.004,0.667-0.11c0.013-0.007,0.025-0.015,0.037-0.022c0.007-0.005,0.014-0.009,0.021-0.014
								c0.179-0.113,0.321-0.295,0.378-0.562c1.229-5.777,2.457-11.554,3.686-17.331
								C271.247,506.268,270.918,505.764,270.424,505.659z M265.828,522.797c-5.221-1.111-10.441-2.221-15.662-3.332
								c1.1-5.175,2.201-10.35,3.302-15.525c5.221,1.111,10.441,2.221,15.661,3.332
								C268.029,512.446,266.929,517.621,265.828,522.797z"/>
						</g>
						<g>
							<path style="fill:#879195;" d="M263.61,537.703c-5.827-1.24-11.655-2.48-17.483-3.719c-0.492-0.105-0.998,0.22-1.103,0.709
								c-1.228,5.777-2.457,11.554-3.686,17.331c-0.104,0.488,0.225,0.991,0.719,1.096c5.828,1.24,11.655,2.48,17.482,3.72
								c0.267,0.057,0.491,0.004,0.667-0.11c0.013-0.007,0.025-0.015,0.037-0.022c0.007-0.005,0.014-0.009,0.021-0.014
								c0.179-0.113,0.321-0.295,0.378-0.562c1.229-5.777,2.457-11.554,3.685-17.331
								C264.432,538.312,264.103,537.808,263.61,537.703z M259.014,554.84c-5.22-1.111-10.441-2.221-15.661-3.332
								c1.1-5.175,2.201-10.35,3.302-15.525c5.221,1.111,10.441,2.221,15.661,3.332C261.215,544.49,260.115,549.665,259.014,554.84z
								"/>
						</g>
					</g>
					<g>
						<polygon style="fill:#145566;" points="264.25,477.706 268.55,477.233 269.936,481.691 292.051,472.056 294.189,472.973 
							268.007,486.37 						"/>
					</g>
					<g>
						<polygon style="fill:#145566;" points="255.806,510.252 260.106,509.779 261.492,514.238 283.607,504.602 285.746,505.52 
							259.564,518.916 						"/>
					</g>
					<g>
						<polygon style="fill:#145566;" points="248.992,540.504 253.293,540.031 254.678,544.489 276.794,534.854 278.932,535.771 
							252.749,549.167 						"/>
					</g>
					<g style="opacity:0.32;">
						
							<rect x="271.731" y="553.597" transform="matrix(0.9781 0.2081 -0.2081 0.9781 122.7672 -50.8924)" style="fill:#879195;" width="63.055" height="8.859"/>
					</g>
					<g style="opacity:0.32;">
						
							<rect x="278.949" y="519.658" transform="matrix(0.9781 0.2081 -0.2081 0.9781 115.8617 -53.1373)" style="fill:#879195;" width="63.055" height="8.859"/>
					</g>
					<g style="opacity:0.32;">
						
							<rect x="286.166" y="485.718" transform="matrix(0.9781 0.2081 -0.2081 0.9781 108.9568 -55.3823)" style="fill:#879195;" width="63.055" height="8.859"/>
					</g>
				</g>
			</g>
		</g>
		<g>
			<g>
				<g>
					<g>
						<g>
							<path style="fill:#145566;" d="M167.896,286.942l24.652-3.041c0.544-1.403,1.777-2.46,3.32-2.65l65.066-8.025
								c1.543-0.19,2.996,0.535,3.865,1.764l24.652-3.04l3.227,26.143l-24.384,3.008c-0.381,1.716-1.742,3.075-3.512,3.293
								l-65.067,8.025c-1.771,0.218-3.421-0.769-4.208-2.341l-24.384,3.007L167.896,286.942z"/>
						</g>
					</g>
					<g style="opacity:0.12;">
						<g>
							<polygon points="281.429,273.642 284.573,299.097 275.236,300.249 278.741,273.887 							"/>
						</g>
					</g>
					<g>
						<g>
							<g>
								<path style="fill:#145566;" d="M300.608,330.613l1.436-0.177c6.361-0.785,10.885-6.539,10.105-12.853l-8.474-68.658
									c-0.779-6.314-6.567-10.796-12.927-10.012l-1.436,0.177c-6.36,0.785-10.885,6.539-10.105,12.853l8.474,68.659
									C288.46,326.915,294.248,331.397,300.608,330.613z"/>
							</g>
						</g>
						<g>
							<g>
								<path style="fill:#145566;" d="M324.912,327.616l1.436-0.177c6.36-0.785,10.885-6.539,10.105-12.853l-8.474-68.659
									c-0.779-6.314-6.567-10.797-12.927-10.012l-1.437,0.177c-6.36,0.785-10.885,6.539-10.105,12.853l8.474,68.659
									C312.764,323.917,318.552,328.4,324.912,327.616z"/>
							</g>
						</g>
						<g>
							<g>
								<path style="fill:#145566;" d="M335.005,293.422l2.42-1.108c1.761-0.806,2.781-3.23,2.459-5.842l-1.741-14.109
									c-0.322-2.611-1.901-4.715-3.805-5.069l-2.617-0.487c-2.618-0.487-4.691,2.471-4.247,6.063l1.938,15.704
									C329.854,292.166,332.583,294.531,335.005,293.422z"/>
							</g>
						</g>
					</g>
					<g>
						<g>
							<g>
								<path style="fill:#145566;" d="M174.69,346.143l-1.436,0.177c-6.361,0.784-12.148-3.698-12.927-10.012l-8.474-68.659
									c-0.779-6.314,3.745-12.068,10.105-12.853l1.436-0.177c6.36-0.785,12.148,3.698,12.927,10.012l8.474,68.658
									C185.575,339.604,181.051,345.359,174.69,346.143z"/>
							</g>
						</g>
						<g>
							<g>
								<path style="fill:#145566;" d="M150.386,349.141l-1.436,0.177c-6.36,0.784-12.148-3.698-12.927-10.012l-8.474-68.659
									c-0.779-6.314,3.745-12.068,10.105-12.853l1.436-0.177c6.36-0.784,12.148,3.698,12.927,10.012l8.474,68.659
									C161.271,342.602,156.747,348.356,150.386,349.141z"/>
							</g>
						</g>
						<g>
							<g>
								<path style="fill:#145566;" d="M132.283,318.426l-2.617-0.487c-1.904-0.354-3.483-2.458-3.805-5.069l-1.741-14.109
									c-0.322-2.611,0.698-5.036,2.459-5.842l2.42-1.108c2.421-1.109,5.151,1.257,5.594,4.849l1.938,15.704
									C136.973,315.955,134.901,318.912,132.283,318.426z"/>
							</g>
						</g>
					</g>
				</g>
			</g>
		</g>
		<g>
			<g>
				<g>
					<g>
						<path style="fill:#D1E7F5;" d="M602.577,457.038c-1.193-2.72-5.983-5.18-5.983-5.18l-22.582-8.722
							c-2.391-0.924-4.494-2.718-5.97-5.039c0.971-0.475,1.41-1.627,0.974-2.622c-0.448-1.021-1.643-1.484-2.67-1.034l-0.075,0.033
							l-1.425-3.25l-19.327,8.476l1.425,3.25l-0.689,0.302c-1.027,0.45-1.496,1.643-1.048,2.664
							c0.448,1.021,1.643,1.484,2.669,1.033l0.565-0.248c0.796,2.82,0.672,5.769-0.39,8.268l-9.497,22.342
							c0,0-1.435,5.19-0.242,7.91l6.108,13.927c0,0,19.307,7.524,12.145,27.295l36.374,83.336c0,0,35.619,5.761,64.265-28.185
							l-36.668-83.207c-18.706-7.746-11.852-27.424-11.852-27.424L602.577,457.038z"/>
					</g>
					<g>
						<path style="fill:#3ABABA;" d="M639.41,541.021l-18.432-42.028l-14.915,8.027c-12.01,5.91-21.171,9.696-34.224,15.01
							l-15.126,5.148l18.432,42.028l-0.203,0.089c38.235-2.947,64.67-28.362,64.67-28.362L639.41,541.021z"/>
					</g>
					<g>
						<polygon style="fill:#FFFFFF;" points="591.162,522.115 602.745,517.035 597.045,531.782 609.007,531.312 598.223,554.287 
							598.411,538.645 588.821,540.776 						"/>
					</g>
					<g>
						<path style="fill:#1A3151;" d="M563.878,434.487l-15.917,6.981c-2.768,1.214-5.997-0.046-7.211-2.814l-2.17-4.948
							c-1.214-2.768,0.046-5.997,2.814-7.211l15.917-6.981c2.768-1.214,5.997,0.046,7.211,2.814l2.17,4.948
							C567.906,430.044,566.646,433.273,563.878,434.487z"/>
					</g>
					<g style="opacity:0.15;">
						<path style="fill:#080B0B;" d="M548.505,446.933l19.462-8.794c0,0,0.745,1.027,1.388,1.703L548.505,446.933z"/>
					</g>
					<g style="opacity:0.06;">
						<g>
							<path style="fill:#080B0B;" d="M608.853,471.348l-0.085-0.194l-64.265,28.185l0.085,0.194c0,0,19.307,7.524,12.145,27.295
								l0.125,0.286l28.928-11.066c1.852-0.708,3.67-1.503,5.448-2.38l29.597-14.61l-0.126-0.286
								C601.999,491.026,608.853,471.348,608.853,471.348z"/>
						</g>
					</g>
				</g>
				<g>
					<polygon style="fill:#A2A4A7;" points="639.637,540.956 639.588,540.908 639.589,540.907 					"/>
				</g>
			</g>
		</g>
		<g>
			<g>
				<polygon style="fill:#A37567;" points="375.628,319.913 375.628,303.697 383.046,299.364 386.614,305.943 386.614,312.545 
					390.465,314.129 386.243,324.576 380.552,395.308 428.95,414.16 416.931,439.663 365.607,409.547 361.188,391.665 				"/>
			</g>
			<g>
				<polygon style="fill:#A37567;" points="405.264,620.524 410.738,728.856 422.758,730.289 432.652,620.524 				"/>
			</g>
			<g>
				<polygon style="fill:#A37567;" points="481.611,620.072 485.231,727.127 473.353,728.56 454.275,621.761 				"/>
			</g>
			<g>
				<g>
					<g>
						<polygon style="fill:#145566;" points="483.884,625.517 483.988,624.113 481.424,564.638 432.652,556.471 449.447,625.517 
													"/>
					</g>
				</g>
				<g>
					<g>
						<polygon style="fill:#145566;" points="436.283,625.517 449.686,538.968 401.801,543.592 399.332,588.547 401.358,625.517 
													"/>
					</g>
				</g>
				<g>
					<g>
						<path style="fill:#9EA6AD;" d="M467.285,411.154l-35.145-3.765c0,0-19.551,2.089-32.817,48.52
							c-7.381,25.832-9.627,66.532-10.168,97.56c0.83,4.426,5.652,23.814,26.042,20.525c35.016-5.648,53.653-11.295,68.901-8.471
							c12.989,2.824,11.891-15.06,10.464-28.708l-5.176-42.228L467.285,411.154z"/>
					</g>
				</g>
				<g>
					<g>
						<path style="fill:#A37567;" d="M460.498,367.408c-8.858-1.953-17.975-3.702-26.843-1.947c-1.942,0.385-4.027,1.061-5.08,2.737
							c-0.408,0.649-0.624,1.399-0.823,2.14c-2.238,8.318-5.077,20.649,0.4,28.313c1.044,1.461,2.447,2.622,3.954,3.563
							c2.015,1.259,4.245,2.116,6.553,2.571c-0.477,2.068-1.142,4.093-1.984,6.041c2.028,3.058,11.488,3.424,13.237,0.493
							c0.098-2.537,0.196-5.073,0.294-7.61c1.152-0.465,2.264-1.031,3.309-1.719c4.043-2.663,6.707-6.704,8.254-11.224
							c1.685-4.923,4.055-9.602,5.594-14.619c0.561-1.828,1.003-3.914,0.042-5.566c-1.024-1.759-3.233-2.358-5.22-2.8
							C461.622,367.657,461.06,367.532,460.498,367.408z"/>
					</g>
					<g>
						<path style="fill:#101E30;" d="M431.014,372.164c4.378-2.816,10.947-4.028,15.064-3.73
							c12.446,0.902,17.006,10.042,17.671,21.486c3.429-4.358,9.864-9.84,10.252-15.448c0.318-4.59-0.317-10.849-2.888-14.813
							c-2.406-3.709-8.559-5.747-12.218-7.896c-3.449-2.026-6.898-4.052-10.348-6.078c-0.717-0.421-1.455-0.85-2.274-0.993
							c-0.97-0.168-1.957,0.08-2.91,0.326c-8.152,2.107-16.304,4.214-24.456,6.321c-1.566,0.405-3.35,0.996-3.927,2.507
							c-0.351,0.919-0.145,1.946,0.066,2.907c0.926,4.232,2.702,8.557,3.142,12.844c0.498,2.491,1.983,15.256,6.393,13.783
							c1.295-2.117,1.489-4.725,2.497-6.993C427.822,374.711,429.238,373.306,431.014,372.164z"/>
					</g>
				</g>
			</g>
			<g>
				<polygon style="fill:#A37567;" points="513.836,320.085 517.267,304.236 510.934,298.431 506.055,304.106 504.658,310.559 
					500.559,311.293 502.475,322.396 493.071,392.731 463.938,413.127 470.29,440.595 504.665,409.81 512.768,393.267 				"/>
			</g>
			<g>
				<polygon style="fill:#122235;" points="410.738,728.856 399.848,735.75 400.875,741.826 423.855,739.033 422.758,730.289 				
					"/>
			</g>
			<g>
				<polygon style="fill:#122235;" points="485.231,727.127 496.263,734.021 495.236,740.098 472.256,737.305 473.353,728.56 				
					"/>
			</g>
		</g>
		<g>
			<g>
				<g>
					<path style="fill:#EBB044;" d="M502.869,282.925c0.159-0.718,5.858-1.746,6.47-1.897c5.834-1.444,11.814-2.34,17.812-2.715
						c17.253-1.079,30.786,3.255,46.405,10.258c14.304,6.414,37.949,11.923,78.801,1.691c0,0,10.339,28.478,10.34,28.483
						c0.264,0.727-51.726,16.755-86.482,5.419c-8-2.609-17.628-5.884-25.392-9.114c-5.655-2.353-11.553-4.175-17.546-5.436
						c-11.96-2.516-24.558-2.772-36.415,0.439L502.869,282.925z"/>
				</g>
				<g>
					
						<rect x="531.462" y="284.429" transform="matrix(0.3344 -0.9424 0.9424 0.3344 89.3924 698.3881)" style="fill:#145566;" width="15.274" height="2.965"/>
				</g>
				<g>
					
						<rect x="560.49" y="291.525" transform="matrix(0.2912 -0.9567 0.9567 0.2912 121.685 750.2538)" style="fill:#145566;" width="13.332" height="2.964"/>
				</g>
				<g>
					
						<rect x="589.27" y="299.753" transform="matrix(0.198 -0.9802 0.9802 0.198 182.3897 825.3891)" style="fill:#145566;" width="12.649" height="2.964"/>
				</g>
				<g>
					
						<rect x="624.104" y="295.168" transform="matrix(0.991 -0.1336 0.1336 0.991 -34.6848 86.2808)" style="fill:#145566;" width="2.964" height="12.858"/>
				</g>
			</g>
			<g>
				<g>
					<g>
						<path style="fill:#C8D6A1;" d="M530.729,135.193c-21.393-15.589-44.021-12.166-60.032-5.947
							c-11.586,4.5-24.511,4.044-35.86-1.024c-15.788-7.049-38.676-11.779-61.06,3.227c-30.011,20.12-36.509,56.858-31.172,90.53
							c3.949,24.919,12.082,50.765,26.194,72.104c13.656,20.649,40.053,42.771,66.705,34.454c8.126-2.536,16.882-2.408,24.776,0.784
							c37.784,15.275,66.676-27.177,80.558-55.776c14.497-29.865,25.08-66.682,16.148-99.739
							C552.787,158.264,543.742,144.675,530.729,135.193z"/>
					</g>
					<g>
						<path style="fill:#3ABABA;" d="M442.345,103.369c3.691-9.417,11.043-17.483,18.711-22.589
							c7.668-5.106,15.68-7.613,23.458-9.415c6.897-1.598,13.732-2.7,20.455-3.297c-1.62,6.204-4.265,12.353-7.024,18.399
							c-3.981,8.725-8.303,17.459-13.886,25.256c-5.583,7.797-12.584,14.657-19.979,17.943
							C448.847,136.433,434.578,123.186,442.345,103.369z"/>
					</g>
				</g>
			</g>
			<g>
				<path style="fill:#EBB044;" d="M347.26,165.456c0,0-11.993,10.338,8.798,14.768c15.847,2.914,31.859,5.082,47.851,7.013
					c33.225,4.013,66.78,6.627,100.267,5.942c11.523-0.236,23.052-0.884,34.5-2.246c5.32-0.633,10.656-1.367,15.91-2.429
					c4.147-0.838,6.252-2.573,4.689-6.956c7.6,1.826,7.513,8.422,7.412,14.756c-0.067,4.204-0.448,8.403-1.073,12.56
					c-0.565,3.761-0.375,9.317-2.289,12.621c-2.413,4.167-8.497,4.321-12.648,4.926c-5.311,0.774-10.644,1.394-15.987,1.904
					c-10.674,1.019-21.384,1.589-32.096,2.02c-25.453,1.025-50.977,0.443-76.361-1.691c-15.328-1.288-30.608-3.149-45.794-5.603
					c-8.12-1.312-16.212-2.793-24.269-4.447c-5.163-1.06-12.994-2.39-16.441-6.966c-1.436-1.907-2.456-4.108-3.213-6.361
					c-2.76-8.213-1.771-17.476-0.009-25.777C336.509,179.492,338.808,168.025,347.26,165.456z"/>
			</g>
			<g>
				<path style="fill:#EBB044;" d="M342.776,224.159c0,0,1.36,14.161,11.903,15.072c0,0,134.453,14.974,203.013-9.834
					c0,0-1.033,14.303-13.252,39.308c-18.296,5.185-27.593,7.364-46.392,9.627c-24.172,2.91-48.532,4.221-72.875,3.976
					c-14.699-0.148-29.397-0.871-44.048-2.191c-12.753-1.149-24.661-3.881-32.056-15.26c-1.646-2.533-2.915-5.321-4.002-8.133
					c-2.087-5.403-3.421-11.054-5.069-16.597c-0.568-1.909-0.905-3.962-1.074-5.943
					C338.617,230.601,338.882,225.739,342.776,224.159z"/>
			</g>
			<g>
				<g>
					
						<rect x="353.129" y="188.231" transform="matrix(0.1551 -0.9879 0.9879 0.1551 118.0221 517.4288)" style="fill:#145566;" width="16.786" height="2.965"/>
				</g>
				<g>
					
						<rect x="388.012" y="193.431" transform="matrix(0.1509 -0.9886 0.9886 0.1509 144.0211 557.4986)" style="fill:#145566;" width="17.044" height="2.965"/>
				</g>
				<g>
					
						<rect x="422.66" y="197.142" transform="matrix(0.116 -0.9933 0.9933 0.116 183.8067 603.7656)" style="fill:#145566;" width="16.855" height="2.964"/>
				</g>
				<g>
					
						<rect x="458.719" y="199.713" transform="matrix(0.0619 -0.9981 0.9981 0.0619 237.5865 655.1757)" style="fill:#145566;" width="17.236" height="2.965"/>
				</g>
				<g>
					
						<rect x="498.826" y="193.411" transform="matrix(0.9953 -0.0972 0.0972 0.9953 -17.2499 49.6033)" style="fill:#145566;" width="2.964" height="16.752"/>
				</g>
				<g>
					
						<rect x="533.4" y="191.365" transform="matrix(1 -0.0098 0.0098 1 -1.9234 5.2296)" style="fill:#145566;" width="2.964" height="16.661"/>
				</g>
				<g>
					
						<rect x="359.847" y="239.701" transform="matrix(0.9892 -0.1465 0.1465 0.9892 -32.3802 55.6054)" style="fill:#145566;" width="2.965" height="15.879"/>
				</g>
				<g>
					
						<rect x="392.722" y="242.257" transform="matrix(0.997 -0.0773 0.0773 0.997 -18.1616 31.2176)" style="fill:#145566;" width="2.964" height="15.945"/>
				</g>
				<g>
					
						<rect x="429.169" y="243.566" transform="matrix(0.9944 -0.1061 0.1061 0.9944 -24.1997 47.1221)" style="fill:#145566;" width="2.964" height="14.74"/>
				</g>
				<g>
					
						<rect x="465.623" y="243.266" transform="matrix(0.9933 -0.1154 0.1154 0.9933 -25.8585 55.5765)" style="fill:#145566;" width="2.964" height="15.741"/>
				</g>
				<g>
					
						<rect x="501.901" y="240.803" transform="matrix(0.9965 -0.084 0.084 0.9965 -19.151 43.1629)" style="fill:#145566;" width="2.965" height="16.747"/>
				</g>
				<g>
					
						<rect x="533.553" y="235.932" transform="matrix(0.9905 -0.1377 0.1377 0.9905 -28.5215 75.9768)" style="fill:#145566;" width="2.965" height="16.522"/>
				</g>
			</g>
		</g>
		<g>
			<polygon style="fill:#E5BBAE;" points="220.237,520.931 233.11,530.792 241.061,527.539 238.008,520.705 232.767,516.69 
				233.851,512.67 222.991,509.669 183.341,473.077 187.846,446.964 175.964,422.606 163.438,476.087 171.35,491.365 			"/>
		</g>
		<g>
			<g>
				<g>
					<path style="fill:#101E30;" d="M203.318,357.611c0,0,14.197,7.843,15.328,25.249c1.131,17.407,5.175,28.092,5.175,28.092
						s-5.194,3.92-9.987,2.232c-4.792-1.688-6.486-1.861-6.437-9.047c0.05-7.185-4.08-40.478-4.08-40.478V357.611z"/>
				</g>
			</g>
		</g>
		<g>
			<g>
				<g>
					<path style="fill:#E5BBAE;" d="M213.23,376.579c-7.198-16.708-28.285-8.83-31.37,6.692
						c-1.754,8.827,2.584,24.341,13.162,24.736c0.498,1.51,1.345,4.361,2.754,5.13c1.526,0.833,5.31-1.132,6.804-1.849
						c0.414-0.199,0.843-0.427,1.089-0.815c0.308-0.487,0.136-1.568-0.12-2.751c1.139-0.337,2.274-0.828,3.391-1.494
						c4.689-2.796,7.306-8.308,7.679-13.762C216.992,387.012,215.393,381.599,213.23,376.579z"/>
				</g>
			</g>
		</g>
		<g>
			<g>
				<g>
					<path style="fill:#101E30;" d="M204.48,358.985c0,0,4.217,8.991-7.285,14.321c-11.501,5.33-17.238,16.545-12.92,26.066
						c4.318,9.52,14.898,14.882,10.755,18.567c-4.143,3.685-22.075,4.934-22.075,4.934s-18.383-32.866-7.598-51.28
						C176.141,353.178,196.522,348.071,204.48,358.985z"/>
				</g>
			</g>
		</g>
		<g>
			<g>
				<path style="fill:#3ABABA;" d="M856.775,349.598l-130.598-16.126c-4.813-0.594-8.234-4.978-7.639-9.792l16.126-130.598
					c0.594-4.814,4.978-8.234,9.792-7.64l130.598,16.126c4.814,0.594,8.234,4.978,7.64,9.792l-16.126,130.598
					C865.973,346.772,861.589,350.192,856.775,349.598z"/>
			</g>
			<g>
				<g>
					<path style="fill:#ECECEC;" d="M789.264,237.39c4.708-1.86,9.934-2.603,15.311-1.939c5.377,0.664,10.266,2.656,14.38,5.606
						l24.419-14.409c-7.202-12.176-19.761-21.005-34.887-22.873c-15.126-1.868-29.455,3.641-39.403,13.699L789.264,237.39z"/>
				</g>
				<g>
					<polygon style="fill:#59595B;" points="807.362,235.826 801.531,235.106 806.695,218.286 					"/>
				</g>
			</g>
			<g>
				<path style="fill:#9EA6AD;" d="M846.335,336.173L739.57,322.99c-3.193-0.394-5.462-3.302-5.067-6.495l8.633-69.915
					c0.394-3.193,3.302-5.462,6.495-5.067l106.765,13.183c3.193,0.394,5.462,3.302,5.067,6.495l-8.633,69.915
					C852.436,334.299,849.528,336.567,846.335,336.173z"/>
			</g>
		</g>
		<g>
			<polygon style="fill:#E5BBAE;" points="795.002,651.401 810.131,727.088 820.668,727.123 815.93,644.184 			"/>
		</g>
		<g>
			<polygon style="fill:#E5BBAE;" points="647.523,526.471 638.382,539.865 629.812,539.262 630.573,531.817 634.296,526.363 
				632.009,522.884 641.385,516.636 667.596,469.477 655.149,446.084 658.814,419.231 687.442,466.109 684.707,483.095 			"/>
		</g>
	</g>
</g>
</svg>
